<svg width="360" height="534" viewBox="0 0 360 534" fill="none" xmlns="http://www.w3.org/2000/svg">
<g filter="url(#filter0_b_28_4929)">
<rect width="360" height="534" fill="white" fill-opacity="0.01"/>
<path d="M17.704 72V55.2H28.432V57.528H20.584V62.448H26.992V64.728H20.584V72H17.704ZM34.8979 72.288C33.6979 72.288 32.6419 72.032 31.7299 71.52C30.8179 70.992 30.1059 70.256 29.5939 69.312C29.0819 68.368 28.8259 67.28 28.8259 66.048C28.8259 64.768 29.0739 63.648 29.5699 62.688C30.0819 61.728 30.7939 60.976 31.7059 60.432C32.6339 59.888 33.7059 59.616 34.9219 59.616C36.1059 59.616 37.1379 59.88 38.0179 60.408C38.8979 60.936 39.5779 61.648 40.0579 62.544C40.5379 63.424 40.7779 64.416 40.7779 65.52C40.7779 65.68 40.7779 65.856 40.7779 66.048C40.7779 66.24 40.7619 66.44 40.7299 66.648H30.8899V64.8H37.8739C37.8419 63.92 37.5459 63.232 36.9859 62.736C36.4259 62.224 35.7299 61.968 34.8979 61.968C34.3059 61.968 33.7619 62.104 33.2659 62.376C32.7699 62.648 32.3779 63.056 32.0899 63.6C31.8019 64.128 31.6579 64.8 31.6579 65.616V66.312C31.6579 67.064 31.7939 67.712 32.0659 68.256C32.3539 68.8 32.7379 69.216 33.2179 69.504C33.7139 69.776 34.2659 69.912 34.8739 69.912C35.5459 69.912 36.0979 69.768 36.5299 69.48C36.9779 69.192 37.3059 68.808 37.5139 68.328H40.4419C40.2179 69.08 39.8499 69.76 39.3379 70.368C38.8259 70.96 38.1939 71.432 37.4419 71.784C36.6899 72.12 35.8419 72.288 34.8979 72.288ZM47.4987 72C46.6827 72 45.9707 71.872 45.3627 71.616C44.7707 71.36 44.3067 70.936 43.9707 70.344C43.6347 69.752 43.4667 68.952 43.4667 67.944V62.328H41.4027V59.904H43.4667L43.8027 56.712H46.3467V59.904H49.6347V62.328H46.3467V67.944C46.3467 68.552 46.4747 68.976 46.7307 69.216C47.0027 69.44 47.4507 69.552 48.0747 69.552H49.5627V72H47.4987ZM56.8156 72.288C55.6316 72.288 54.5676 72.024 53.6236 71.496C52.6956 70.952 51.9676 70.208 51.4396 69.264C50.9276 68.304 50.6716 67.216 50.6716 66C50.6716 64.736 50.9276 63.632 51.4396 62.688C51.9676 61.728 52.6956 60.976 53.6236 60.432C54.5676 59.888 55.6396 59.616 56.8396 59.616C58.3436 59.616 59.6076 60.016 60.6316 60.816C61.6556 61.6 62.3116 62.68 62.5996 64.056H59.5756C59.4156 63.448 59.0796 62.968 58.5676 62.616C58.0716 62.264 57.4796 62.088 56.7916 62.088C56.1996 62.088 55.6556 62.24 55.1596 62.544C54.6796 62.848 54.2956 63.288 54.0076 63.864C53.7356 64.44 53.5996 65.136 53.5996 65.952C53.5996 66.576 53.6796 67.128 53.8396 67.608C53.9996 68.088 54.2236 68.496 54.5116 68.832C54.8156 69.152 55.1596 69.4 55.5436 69.576C55.9276 69.752 56.3436 69.84 56.7916 69.84C57.2556 69.84 57.6716 69.768 58.0396 69.624C58.4236 69.464 58.7436 69.232 58.9996 68.928C59.2716 68.624 59.4636 68.264 59.5756 67.848H62.5996C62.3116 69.192 61.6556 70.272 60.6316 71.088C59.6076 71.888 58.3356 72.288 56.8156 72.288ZM64.4164 72V54.72H67.2964V61.776C67.6964 61.12 68.2404 60.6 68.9284 60.216C69.6164 59.816 70.3924 59.616 71.2564 59.616C72.2484 59.616 73.0884 59.824 73.7764 60.24C74.4644 60.64 74.9844 61.24 75.3364 62.04C75.7044 62.824 75.8884 63.808 75.8884 64.992V72H73.0324V65.256C73.0324 64.216 72.8084 63.424 72.3604 62.88C71.9284 62.336 71.2644 62.064 70.3684 62.064C69.7924 62.064 69.2724 62.208 68.8084 62.496C68.3444 62.768 67.9764 63.168 67.7044 63.696C67.4324 64.208 67.2964 64.84 67.2964 65.592V72H64.4164ZM78.1077 72V59.904H80.9877V72H78.1077ZM79.5477 57.984C79.0197 57.984 78.5797 57.824 78.2277 57.504C77.8917 57.168 77.7237 56.76 77.7237 56.28C77.7237 55.784 77.8917 55.384 78.2277 55.08C78.5797 54.76 79.0197 54.6 79.5477 54.6C80.0757 54.6 80.5077 54.76 80.8437 55.08C81.1957 55.384 81.3717 55.784 81.3717 56.28C81.3717 56.76 81.1957 57.168 80.8437 57.504C80.5077 57.824 80.0757 57.984 79.5477 57.984ZM83.3558 72V59.904H85.8998L86.1158 61.92C86.4838 61.216 87.0118 60.656 87.6998 60.24C88.3878 59.824 89.2038 59.616 90.1478 59.616C91.1238 59.616 91.9558 59.824 92.6438 60.24C93.3318 60.64 93.8598 61.232 94.2278 62.016C94.6118 62.8 94.8038 63.776 94.8038 64.944V72H91.9238V65.208C91.9238 64.2 91.6998 63.424 91.2518 62.88C90.8038 62.336 90.1398 62.064 89.2598 62.064C88.6838 62.064 88.1638 62.2 87.6998 62.472C87.2518 62.744 86.8918 63.144 86.6198 63.672C86.3638 64.184 86.2358 64.808 86.2358 65.544V72H83.3558ZM101.968 77.568C100.832 77.568 99.8322 77.424 98.9682 77.136C98.1202 76.864 97.4562 76.44 96.9762 75.864C96.5122 75.304 96.2802 74.6 96.2802 73.752C96.2802 73.256 96.4002 72.768 96.6402 72.288C96.8962 71.824 97.2722 71.392 97.7682 70.992C98.2802 70.576 98.9282 70.216 99.7122 69.912L100.984 71.304C100.216 71.576 99.6802 71.904 99.3762 72.288C99.0722 72.672 98.9202 73.064 98.9202 73.464C98.9202 73.88 99.0482 74.224 99.3042 74.496C99.5762 74.784 99.9362 75 100.384 75.144C100.848 75.288 101.368 75.36 101.944 75.36C102.504 75.36 102.992 75.28 103.408 75.12C103.824 74.976 104.144 74.768 104.368 74.496C104.608 74.224 104.728 73.896 104.728 73.512C104.728 73.032 104.56 72.64 104.224 72.336C103.888 72.048 103.224 71.872 102.232 71.808C101.384 71.744 100.64 71.656 100 71.544C99.3602 71.416 98.8082 71.272 98.3442 71.112C97.8962 70.952 97.5122 70.776 97.1922 70.584C96.8722 70.376 96.6082 70.168 96.4002 69.96V69.408L98.9202 66.768L101.056 67.464L98.2242 70.224L98.9682 68.832C99.1282 68.944 99.2882 69.048 99.4482 69.144C99.6242 69.24 99.8402 69.328 100.096 69.408C100.368 69.472 100.72 69.536 101.152 69.6C101.584 69.664 102.144 69.728 102.832 69.792C103.904 69.872 104.776 70.064 105.448 70.368C106.12 70.672 106.616 71.08 106.936 71.592C107.256 72.104 107.416 72.72 107.416 73.44C107.416 74.144 107.216 74.808 106.816 75.432C106.432 76.056 105.84 76.568 105.04 76.968C104.24 77.368 103.216 77.568 101.968 77.568ZM101.968 68.376C100.96 68.376 100.088 68.184 99.3522 67.8C98.6322 67.4 98.0802 66.872 97.6962 66.216C97.3122 65.544 97.1202 64.808 97.1202 64.008C97.1202 63.192 97.3122 62.456 97.6962 61.8C98.0802 61.144 98.6322 60.616 99.3522 60.216C100.088 59.816 100.96 59.616 101.968 59.616C102.976 59.616 103.84 59.816 104.56 60.216C105.28 60.616 105.832 61.144 106.216 61.8C106.6 62.456 106.792 63.192 106.792 64.008C106.792 64.808 106.6 65.544 106.216 66.216C105.832 66.872 105.28 67.4 104.56 67.8C103.84 68.184 102.976 68.376 101.968 68.376ZM101.968 66.144C102.656 66.144 103.208 65.96 103.624 65.592C104.04 65.224 104.248 64.696 104.248 64.008C104.248 63.32 104.04 62.8 103.624 62.448C103.208 62.08 102.656 61.896 101.968 61.896C101.28 61.896 100.72 62.08 100.288 62.448C99.8562 62.8 99.6402 63.32 99.6402 64.008C99.6402 64.696 99.8562 65.224 100.288 65.592C100.72 65.96 101.28 66.144 101.968 66.144ZM103.96 62.016L103.408 59.904H108.376V61.704L103.96 62.016ZM116.323 77.28L119.275 70.656H118.555L113.731 59.904H116.875L120.475 68.112L123.883 59.904H126.931L119.371 77.28H116.323ZM132.64 72.288C131.488 72.288 130.448 72.024 129.52 71.496C128.608 70.952 127.888 70.208 127.36 69.264C126.848 68.304 126.592 67.208 126.592 65.976C126.592 64.712 126.856 63.608 127.384 62.664C127.912 61.704 128.632 60.96 129.544 60.432C130.472 59.888 131.512 59.616 132.664 59.616C133.816 59.616 134.848 59.888 135.76 60.432C136.688 60.96 137.408 61.696 137.92 62.64C138.448 63.584 138.712 64.688 138.712 65.952C138.712 67.216 138.448 68.32 137.92 69.264C137.392 70.208 136.664 70.952 135.736 71.496C134.824 72.024 133.792 72.288 132.64 72.288ZM132.64 69.816C133.216 69.816 133.736 69.672 134.2 69.384C134.68 69.096 135.064 68.664 135.352 68.088C135.64 67.512 135.784 66.8 135.784 65.952C135.784 65.104 135.64 64.4 135.352 63.84C135.08 63.264 134.704 62.832 134.224 62.544C133.76 62.256 133.24 62.112 132.664 62.112C132.104 62.112 131.584 62.256 131.104 62.544C130.624 62.832 130.24 63.264 129.952 63.84C129.664 64.4 129.52 65.104 129.52 65.952C129.52 66.8 129.664 67.512 129.952 68.088C130.24 68.664 130.616 69.096 131.08 69.384C131.56 69.672 132.08 69.816 132.64 69.816ZM145.059 72.288C144.083 72.288 143.243 72.096 142.539 71.712C141.851 71.312 141.323 70.72 140.955 69.936C140.587 69.136 140.403 68.152 140.403 66.984V59.904H143.283V66.696C143.283 67.736 143.499 68.528 143.931 69.072C144.379 69.6 145.051 69.864 145.947 69.864C146.523 69.864 147.035 69.728 147.483 69.456C147.947 69.184 148.307 68.792 148.563 68.28C148.835 67.752 148.971 67.112 148.971 66.36V59.904H151.851V72H149.307L149.091 69.984C148.723 70.688 148.187 71.248 147.483 71.664C146.795 72.08 145.987 72.288 145.059 72.288ZM154.096 72V59.904H156.664L156.928 62.16C157.216 61.632 157.576 61.184 158.008 60.816C158.44 60.432 158.944 60.136 159.52 59.928C160.112 59.72 160.76 59.616 161.464 59.616V62.664H160.456C159.976 62.664 159.52 62.728 159.088 62.856C158.656 62.968 158.28 63.16 157.96 63.432C157.656 63.688 157.416 64.048 157.24 64.512C157.064 64.96 156.976 65.528 156.976 66.216V72H154.096ZM167.67 72V55.2H173.718C175.062 55.2 176.174 55.432 177.054 55.896C177.934 56.344 178.59 56.952 179.022 57.72C179.454 58.488 179.67 59.368 179.67 60.36C179.67 61.288 179.462 62.144 179.046 62.928C178.63 63.696 177.982 64.32 177.102 64.8C176.222 65.264 175.094 65.496 173.718 65.496H170.55V72H167.67ZM170.55 63.144H173.55C174.686 63.144 175.502 62.896 175.998 62.4C176.494 61.888 176.742 61.208 176.742 60.36C176.742 59.48 176.494 58.792 175.998 58.296C175.502 57.8 174.686 57.552 173.55 57.552H170.55V63.144ZM178.239 72L184.383 55.2H187.599L193.743 72H190.695L185.967 58.56L181.239 72H178.239ZM180.975 68.04L181.743 65.76H190.023L190.791 68.04H180.975ZM195.094 72V55.2H197.974L206.062 67.344V55.2H208.942V72H206.062L197.974 59.88V72H195.094ZM216.26 72V55.2H221.684C223.636 55.2 225.244 55.544 226.508 56.232C227.788 56.92 228.732 57.896 229.34 59.16C229.964 60.408 230.276 61.896 230.276 63.624C230.276 65.32 229.964 66.8 229.34 68.064C228.732 69.312 227.788 70.28 226.508 70.968C225.244 71.656 223.636 72 221.684 72H216.26ZM219.14 69.552H221.54C222.996 69.552 224.14 69.32 224.972 68.856C225.82 68.376 226.42 67.696 226.772 66.816C227.14 65.92 227.324 64.856 227.324 63.624C227.324 62.376 227.14 61.312 226.772 60.432C226.42 59.536 225.82 58.848 224.972 58.368C224.14 57.872 222.996 57.624 221.54 57.624H219.14V69.552ZM237.696 72.288C236.496 72.288 235.44 72.032 234.528 71.52C233.616 70.992 232.904 70.256 232.392 69.312C231.88 68.368 231.624 67.28 231.624 66.048C231.624 64.768 231.872 63.648 232.368 62.688C232.88 61.728 233.592 60.976 234.504 60.432C235.432 59.888 236.504 59.616 237.72 59.616C238.904 59.616 239.936 59.88 240.816 60.408C241.696 60.936 242.376 61.648 242.856 62.544C243.336 63.424 243.576 64.416 243.576 65.52C243.576 65.68 243.576 65.856 243.576 66.048C243.576 66.24 243.56 66.44 243.528 66.648H233.688V64.8H240.672C240.64 63.92 240.344 63.232 239.784 62.736C239.224 62.224 238.528 61.968 237.696 61.968C237.104 61.968 236.56 62.104 236.064 62.376C235.568 62.648 235.176 63.056 234.888 63.6C234.6 64.128 234.456 64.8 234.456 65.616V66.312C234.456 67.064 234.592 67.712 234.864 68.256C235.152 68.8 235.536 69.216 236.016 69.504C236.512 69.776 237.064 69.912 237.672 69.912C238.344 69.912 238.896 69.768 239.328 69.48C239.776 69.192 240.104 68.808 240.312 68.328H243.24C243.016 69.08 242.648 69.76 242.136 70.368C241.624 70.96 240.992 71.432 240.24 71.784C239.488 72.12 238.64 72.288 237.696 72.288ZM250.297 72C249.481 72 248.769 71.872 248.161 71.616C247.569 71.36 247.105 70.936 246.769 70.344C246.433 69.752 246.265 68.952 246.265 67.944V62.328H244.201V59.904H246.265L246.601 56.712H249.145V59.904H252.433V62.328H249.145V67.944C249.145 68.552 249.273 68.976 249.529 69.216C249.801 69.44 250.249 69.552 250.873 69.552H252.361V72H250.297ZM258.214 72.288C257.222 72.288 256.398 72.12 255.742 71.784C255.086 71.448 254.598 71 254.278 70.44C253.958 69.88 253.798 69.272 253.798 68.616C253.798 67.848 253.99 67.184 254.374 66.624C254.774 66.064 255.358 65.632 256.126 65.328C256.894 65.008 257.838 64.848 258.958 64.848H262.006C262.006 64.208 261.918 63.68 261.742 63.264C261.566 62.832 261.294 62.512 260.926 62.304C260.558 62.096 260.086 61.992 259.51 61.992C258.854 61.992 258.294 62.144 257.83 62.448C257.366 62.736 257.078 63.184 256.966 63.792H254.134C254.23 62.928 254.518 62.192 254.998 61.584C255.478 60.96 256.11 60.48 256.894 60.144C257.694 59.792 258.566 59.616 259.51 59.616C260.646 59.616 261.614 59.816 262.414 60.216C263.214 60.6 263.822 61.16 264.238 61.896C264.67 62.616 264.886 63.488 264.886 64.512V72H262.438L262.15 70.056C261.99 70.376 261.782 70.672 261.526 70.944C261.286 71.216 261.006 71.456 260.686 71.664C260.366 71.856 259.998 72.008 259.582 72.12C259.182 72.232 258.726 72.288 258.214 72.288ZM258.862 70.008C259.326 70.008 259.734 69.928 260.086 69.768C260.454 69.592 260.766 69.352 261.022 69.048C261.294 68.728 261.502 68.376 261.646 67.992C261.79 67.608 261.886 67.2 261.934 66.768V66.72H259.27C258.71 66.72 258.246 66.792 257.878 66.936C257.51 67.064 257.246 67.256 257.086 67.512C256.926 67.768 256.846 68.064 256.846 68.4C256.846 68.736 256.926 69.024 257.086 69.264C257.246 69.504 257.478 69.688 257.782 69.816C258.086 69.944 258.446 70.008 258.862 70.008ZM267.124 72V59.904H270.004V72H267.124ZM268.564 57.984C268.036 57.984 267.596 57.824 267.244 57.504C266.908 57.168 266.74 56.76 266.74 56.28C266.74 55.784 266.908 55.384 267.244 55.08C267.596 54.76 268.036 54.6 268.564 54.6C269.092 54.6 269.524 54.76 269.86 55.08C270.212 55.384 270.388 55.784 270.388 56.28C270.388 56.76 270.212 57.168 269.86 57.504C269.524 57.824 269.092 57.984 268.564 57.984ZM272.372 72V54.72H275.252V72H272.372ZM282.329 72.288C281.257 72.288 280.321 72.12 279.521 71.784C278.737 71.432 278.113 70.952 277.649 70.344C277.201 69.72 276.937 69.008 276.857 68.208H279.737C279.817 68.544 279.961 68.856 280.169 69.144C280.377 69.416 280.657 69.632 281.009 69.792C281.377 69.952 281.809 70.032 282.305 70.032C282.785 70.032 283.177 69.968 283.481 69.84C283.785 69.696 284.009 69.512 284.153 69.288C284.297 69.064 284.369 68.824 284.369 68.568C284.369 68.184 284.265 67.888 284.057 67.68C283.849 67.472 283.545 67.312 283.145 67.2C282.761 67.072 282.297 66.952 281.753 66.84C281.177 66.728 280.617 66.592 280.073 66.432C279.545 66.256 279.065 66.04 278.633 65.784C278.217 65.528 277.881 65.2 277.625 64.8C277.385 64.4 277.265 63.912 277.265 63.336C277.265 62.632 277.449 62 277.817 61.44C278.201 60.88 278.745 60.44 279.449 60.12C280.169 59.784 281.025 59.616 282.017 59.616C283.425 59.616 284.545 59.944 285.377 60.6C286.225 61.24 286.721 62.144 286.865 63.312H284.129C284.049 62.864 283.825 62.52 283.457 62.28C283.089 62.024 282.601 61.896 281.993 61.896C281.369 61.896 280.889 62.016 280.553 62.256C280.233 62.48 280.073 62.784 280.073 63.168C280.073 63.408 280.169 63.632 280.361 63.84C280.569 64.032 280.865 64.2 281.249 64.344C281.633 64.472 282.105 64.6 282.665 64.728C283.561 64.904 284.353 65.112 285.041 65.352C285.729 65.592 286.273 65.944 286.673 66.408C287.073 66.872 287.273 67.528 287.273 68.376C287.289 69.144 287.089 69.824 286.673 70.416C286.273 71.008 285.705 71.472 284.969 71.808C284.233 72.128 283.353 72.288 282.329 72.288Z" fill="#1D3B7A"/>
<path d="M21.264 99.168C20.3493 99.168 19.5467 98.958 18.856 98.538C18.1653 98.1087 17.6287 97.516 17.246 96.76C16.8633 96.004 16.672 95.122 16.672 94.114C16.672 93.1153 16.8633 92.2333 17.246 91.468C17.638 90.7027 18.1887 90.1053 18.898 89.676C19.6167 89.2467 20.4613 89.032 21.432 89.032C22.5333 89.032 23.4527 89.298 24.19 89.83C24.9273 90.3527 25.3987 91.0853 25.604 92.028H24.246C24.1153 91.44 23.8073 90.9733 23.322 90.628C22.8367 90.2827 22.2067 90.11 21.432 90.11C20.7133 90.11 20.0833 90.2733 19.542 90.6C19.01 90.9173 18.5993 91.3747 18.31 91.972C18.0207 92.5693 17.876 93.2833 17.876 94.114C17.876 94.9447 18.0207 95.6633 18.31 96.27C18.5993 96.8673 19.0007 97.3247 19.514 97.642C20.0367 97.9593 20.634 98.118 21.306 98.118C22.3513 98.118 23.14 97.81 23.672 97.194C24.204 96.578 24.5073 95.7427 24.582 94.688H21.754V93.764H25.786V99H24.708L24.61 97.39C24.3767 97.7727 24.106 98.0993 23.798 98.37C23.4993 98.6313 23.1447 98.832 22.734 98.972C22.3233 99.1027 21.8333 99.168 21.264 99.168ZM30.6834 99.168C30.0207 99.168 29.4327 99.014 28.9194 98.706C28.4154 98.398 28.0187 97.9687 27.7294 97.418C27.44 96.858 27.2954 96.2093 27.2954 95.472C27.2954 94.7253 27.4354 94.0767 27.7154 93.526C28.0047 92.9753 28.406 92.546 28.9194 92.238C29.442 91.93 30.0394 91.776 30.7114 91.776C31.402 91.776 31.9854 91.93 32.4614 92.238C32.9467 92.546 33.3154 92.952 33.5674 93.456C33.8287 93.9507 33.9594 94.4967 33.9594 95.094C33.9594 95.1873 33.9594 95.2853 33.9594 95.388C33.9594 95.4907 33.9547 95.6073 33.9454 95.738H28.1774V94.828H32.8114C32.7834 94.184 32.5687 93.68 32.1674 93.316C31.7754 92.952 31.2807 92.77 30.6834 92.77C30.282 92.77 29.9087 92.8633 29.5634 93.05C29.2274 93.2273 28.9567 93.4933 28.7514 93.848C28.546 94.1933 28.4434 94.6273 28.4434 95.15V95.542C28.4434 96.1207 28.546 96.606 28.7514 96.998C28.966 97.39 29.2414 97.684 29.5774 97.88C29.9227 98.076 30.2914 98.174 30.6834 98.174C31.178 98.174 31.584 98.0667 31.9014 97.852C32.228 97.628 32.4614 97.3293 32.6014 96.956H33.7634C33.6514 97.376 33.4554 97.754 33.1754 98.09C32.8954 98.426 32.5454 98.692 32.1254 98.888C31.7147 99.0747 31.234 99.168 30.6834 99.168ZM38.086 99C37.666 99 37.302 98.9347 36.994 98.804C36.686 98.6733 36.448 98.454 36.28 98.146C36.1213 97.8287 36.042 97.404 36.042 96.872V92.938H34.81V91.944H36.042L36.196 90.236H37.218V91.944H39.262V92.938H37.218V96.872C37.218 97.3107 37.3067 97.6093 37.484 97.768C37.6613 97.9173 37.974 97.992 38.422 97.992H39.178V99H38.086ZM43.5684 99C43.1484 99 42.7844 98.9347 42.4764 98.804C42.1684 98.6733 41.9304 98.454 41.7624 98.146C41.6037 97.8287 41.5244 97.404 41.5244 96.872V92.938H40.2924V91.944H41.5244L41.6784 90.236H42.7004V91.944H44.7444V92.938H42.7004V96.872C42.7004 97.3107 42.7891 97.6093 42.9664 97.768C43.1437 97.9173 43.4564 97.992 43.9044 97.992H44.6604V99H43.5684ZM46.3908 99V91.944H47.5668V99H46.3908ZM46.9788 90.446C46.7455 90.446 46.5495 90.3713 46.3908 90.222C46.2415 90.0633 46.1668 89.8673 46.1668 89.634C46.1668 89.4007 46.2415 89.214 46.3908 89.074C46.5495 88.9247 46.7455 88.85 46.9788 88.85C47.2028 88.85 47.3942 88.9247 47.5528 89.074C47.7115 89.214 47.7908 89.4007 47.7908 89.634C47.7908 89.8673 47.7115 90.0633 47.5528 90.222C47.3942 90.3713 47.2028 90.446 46.9788 90.446ZM49.6421 99V91.944H50.7061L50.7621 93.176C50.9861 92.7373 51.3034 92.3967 51.7141 92.154C52.1341 91.902 52.6101 91.776 53.1421 91.776C53.6928 91.776 54.1688 91.888 54.5701 92.112C54.9714 92.3267 55.2841 92.658 55.5081 93.106C55.7321 93.5447 55.8441 94.1047 55.8441 94.786V99H54.6681V94.912C54.6681 94.2027 54.5094 93.6707 54.1921 93.316C53.8841 92.9613 53.4454 92.784 52.8761 92.784C52.4841 92.784 52.1341 92.882 51.8261 93.078C51.5181 93.2647 51.2708 93.54 51.0841 93.904C50.9068 94.2587 50.8181 94.702 50.8181 95.234V99H49.6421ZM60.4672 102.248C59.8325 102.248 59.2678 102.164 58.7732 101.996C58.2878 101.837 57.9098 101.59 57.6392 101.254C57.3685 100.918 57.2332 100.503 57.2332 100.008C57.2332 99.7933 57.2752 99.5647 57.3592 99.322C57.4525 99.0793 57.6065 98.8413 57.8212 98.608C58.0452 98.3747 58.3578 98.1647 58.7592 97.978L59.5712 98.454C59.0765 98.6593 58.7545 98.8927 58.6052 99.154C58.4558 99.4247 58.3812 99.672 58.3812 99.896C58.3812 100.204 58.4698 100.461 58.6472 100.666C58.8245 100.871 59.0718 101.025 59.3892 101.128C59.7065 101.231 60.0658 101.282 60.4672 101.282C60.8685 101.282 61.2138 101.226 61.5032 101.114C61.7925 101.002 62.0165 100.843 62.1752 100.638C62.3338 100.433 62.4132 100.19 62.4132 99.91C62.4132 99.5833 62.2918 99.308 62.0492 99.084C61.8065 98.8693 61.3445 98.7433 60.6632 98.706C60.1125 98.6687 59.6505 98.6173 59.2772 98.552C58.9038 98.4867 58.5958 98.412 58.3532 98.328C58.1105 98.2347 57.9052 98.132 57.7372 98.02C57.5785 97.908 57.4338 97.7913 57.3032 97.67V97.348L58.6612 96.004L59.6832 96.368L58.2832 97.628L58.4652 97.138C58.5678 97.2127 58.6658 97.2827 58.7592 97.348C58.8525 97.4133 58.9785 97.4693 59.1372 97.516C59.2958 97.5627 59.5152 97.6047 59.7952 97.642C60.0845 97.6793 60.4625 97.7167 60.9292 97.754C61.5732 97.8007 62.0865 97.9127 62.4692 98.09C62.8612 98.2673 63.1412 98.5053 63.3092 98.804C63.4865 99.1027 63.5752 99.4573 63.5752 99.868C63.5752 100.269 63.4632 100.647 63.2392 101.002C63.0245 101.366 62.6885 101.665 62.2312 101.898C61.7738 102.131 61.1858 102.248 60.4672 102.248ZM60.4532 96.788C59.8652 96.788 59.3612 96.676 58.9412 96.452C58.5305 96.228 58.2178 95.9293 58.0032 95.556C57.7885 95.1733 57.6812 94.7487 57.6812 94.282C57.6812 93.8153 57.7885 93.3953 58.0032 93.022C58.2272 92.6487 58.5445 92.35 58.9552 92.126C59.3658 91.8927 59.8652 91.776 60.4532 91.776C61.0412 91.776 61.5405 91.8927 61.9512 92.126C62.3618 92.35 62.6745 92.6487 62.8892 93.022C63.1038 93.3953 63.2112 93.8153 63.2112 94.282C63.2112 94.7487 63.1038 95.1733 62.8892 95.556C62.6745 95.9293 62.3618 96.228 61.9512 96.452C61.5405 96.676 61.0412 96.788 60.4532 96.788ZM60.4532 95.822C60.9572 95.822 61.3538 95.6913 61.6432 95.43C61.9325 95.1687 62.0772 94.786 62.0772 94.282C62.0772 93.7873 61.9325 93.4093 61.6432 93.148C61.3538 92.8867 60.9572 92.756 60.4532 92.756C59.9585 92.756 59.5572 92.8867 59.2492 93.148C58.9505 93.4093 58.8012 93.7873 58.8012 94.282C58.8012 94.786 58.9505 95.1687 59.2492 95.43C59.5478 95.6913 59.9492 95.822 60.4532 95.822ZM61.6012 92.938L61.2512 91.944H64.1352V92.826L61.6012 92.938ZM69.9766 102.08L71.6986 98.216H71.2926L68.5206 91.944H69.7946L72.0906 97.334L74.4986 91.944H75.7166L71.2086 102.08H69.9766ZM79.4796 99.168C78.8263 99.168 78.2383 99.0187 77.7156 98.72C77.1929 98.412 76.7823 97.9827 76.4836 97.432C76.1849 96.872 76.0356 96.2233 76.0356 95.486C76.0356 94.73 76.1849 94.0767 76.4836 93.526C76.7916 92.966 77.2069 92.5367 77.7296 92.238C78.2616 91.93 78.8543 91.776 79.5076 91.776C80.1796 91.776 80.7723 91.93 81.2856 92.238C81.8083 92.5367 82.2189 92.966 82.5176 93.526C82.8256 94.0767 82.9796 94.7253 82.9796 95.472C82.9796 96.2187 82.8256 96.872 82.5176 97.432C82.2096 97.9827 81.7943 98.412 81.2716 98.72C80.7489 99.0187 80.1516 99.168 79.4796 99.168ZM79.4936 98.16C79.8949 98.16 80.2683 98.062 80.6136 97.866C80.9589 97.6607 81.2389 97.3573 81.4536 96.956C81.6683 96.5547 81.7756 96.06 81.7756 95.472C81.7756 94.8747 81.6683 94.38 81.4536 93.988C81.2483 93.5867 80.9729 93.288 80.6276 93.092C80.2916 92.8867 79.9183 92.784 79.5076 92.784C79.1156 92.784 78.7423 92.8867 78.3876 93.092C78.0423 93.288 77.7623 93.5867 77.5476 93.988C77.3423 94.38 77.2396 94.8747 77.2396 95.472C77.2396 96.06 77.3423 96.5547 77.5476 96.956C77.7623 97.3573 78.0376 97.6607 78.3736 97.866C78.7189 98.062 79.0923 98.16 79.4936 98.16ZM87.1904 99.168C86.6491 99.168 86.1731 99.0607 85.7624 98.846C85.3611 98.6313 85.0484 98.3 84.8244 97.852C84.6098 97.404 84.5024 96.844 84.5024 96.172V91.944H85.6784V96.046C85.6784 96.746 85.8324 97.2733 86.1404 97.628C86.4484 97.9827 86.8824 98.16 87.4424 98.16C87.8344 98.16 88.1891 98.0667 88.5064 97.88C88.8238 97.684 89.0711 97.4087 89.2484 97.054C89.4351 96.69 89.5284 96.2467 89.5284 95.724V91.944H90.7044V99H89.6404L89.5704 97.768C89.3558 98.2067 89.0384 98.552 88.6184 98.804C88.1984 99.0467 87.7224 99.168 87.1904 99.168ZM92.6538 99V91.944H93.7178L93.8018 93.288C93.9605 92.9707 94.1612 92.7 94.4038 92.476C94.6558 92.252 94.9545 92.0793 95.2998 91.958C95.6545 91.8367 96.0558 91.776 96.5038 91.776V93.008H96.0698C95.7712 93.008 95.4865 93.05 95.2158 93.134C94.9452 93.2087 94.7025 93.3347 94.4878 93.512C94.2825 93.6893 94.1192 93.932 93.9978 94.24C93.8858 94.5387 93.8298 94.912 93.8298 95.36V99H92.6538ZM101.624 99V89.2H104.816C105.591 89.2 106.226 89.3307 106.72 89.592C107.224 89.844 107.593 90.1847 107.826 90.614C108.069 91.0433 108.19 91.5333 108.19 92.084C108.19 92.616 108.069 93.1013 107.826 93.54C107.593 93.9693 107.229 94.3147 106.734 94.576C106.24 94.8373 105.6 94.968 104.816 94.968H102.8V99H101.624ZM102.8 93.974H104.802C105.586 93.974 106.146 93.8013 106.482 93.456C106.818 93.1107 106.986 92.6533 106.986 92.084C106.986 91.4773 106.818 91.0107 106.482 90.684C106.146 90.348 105.586 90.18 104.802 90.18H102.8V93.974ZM107.885 99L111.497 89.2H112.743L116.341 99H115.095L112.113 90.67L109.117 99H107.885ZM109.537 96.48L109.873 95.528H114.311L114.647 96.48H109.537ZM117.812 99V89.2H118.988L124.21 97.054V89.2H125.386V99H124.21L118.988 91.146V99H117.812ZM134.248 99.168C133.567 99.168 132.969 99.0093 132.456 98.692C131.943 98.3653 131.546 97.922 131.266 97.362C130.986 96.802 130.846 96.1673 130.846 95.458C130.846 94.7487 130.986 94.1187 131.266 93.568C131.546 93.008 131.943 92.5693 132.456 92.252C132.979 91.9347 133.581 91.776 134.262 91.776C134.841 91.776 135.345 91.8927 135.774 92.126C136.213 92.3593 136.549 92.686 136.782 93.106V88.92H137.958V99H136.894L136.796 97.838C136.647 98.0713 136.455 98.2907 136.222 98.496C135.989 98.692 135.709 98.8553 135.382 98.986C135.055 99.1073 134.677 99.168 134.248 99.168ZM134.388 98.146C134.855 98.146 135.265 98.034 135.62 97.81C135.975 97.586 136.25 97.278 136.446 96.886C136.642 96.4847 136.74 96.0133 136.74 95.472C136.74 94.94 136.642 94.4733 136.446 94.072C136.25 93.6707 135.975 93.358 135.62 93.134C135.265 92.91 134.855 92.798 134.388 92.798C133.931 92.798 133.525 92.91 133.17 93.134C132.815 93.358 132.54 93.6707 132.344 94.072C132.148 94.4733 132.05 94.94 132.05 95.472C132.05 96.0133 132.148 96.4847 132.344 96.886C132.54 97.278 132.815 97.586 133.17 97.81C133.525 98.034 133.931 98.146 134.388 98.146ZM143.012 99.168C142.349 99.168 141.761 99.014 141.248 98.706C140.744 98.398 140.347 97.9687 140.058 97.418C139.768 96.858 139.624 96.2093 139.624 95.472C139.624 94.7253 139.764 94.0767 140.044 93.526C140.333 92.9753 140.734 92.546 141.248 92.238C141.77 91.93 142.368 91.776 143.04 91.776C143.73 91.776 144.314 91.93 144.79 92.238C145.275 92.546 145.644 92.952 145.896 93.456C146.157 93.9507 146.288 94.4967 146.288 95.094C146.288 95.1873 146.288 95.2853 146.288 95.388C146.288 95.4907 146.283 95.6073 146.274 95.738H140.506V94.828H145.14C145.112 94.184 144.897 93.68 144.496 93.316C144.104 92.952 143.609 92.77 143.012 92.77C142.61 92.77 142.237 92.8633 141.892 93.05C141.556 93.2273 141.285 93.4933 141.08 93.848C140.874 94.1933 140.772 94.6273 140.772 95.15V95.542C140.772 96.1207 140.874 96.606 141.08 96.998C141.294 97.39 141.57 97.684 141.906 97.88C142.251 98.076 142.62 98.174 143.012 98.174C143.506 98.174 143.912 98.0667 144.23 97.852C144.556 97.628 144.79 97.3293 144.93 96.956H146.092C145.98 97.376 145.784 97.754 145.504 98.09C145.224 98.426 144.874 98.692 144.454 98.888C144.043 99.0747 143.562 99.168 143.012 99.168ZM150.414 99C149.994 99 149.63 98.9347 149.322 98.804C149.014 98.6733 148.776 98.454 148.608 98.146C148.449 97.8287 148.37 97.404 148.37 96.872V92.938H147.138V91.944H148.37L148.524 90.236H149.546V91.944H151.59V92.938H149.546V96.872C149.546 97.3107 149.635 97.6093 149.812 97.768C149.989 97.9173 150.302 97.992 150.75 97.992H151.506V99H150.414ZM155.421 99.168C154.851 99.168 154.375 99.07 153.993 98.874C153.61 98.6687 153.325 98.4027 153.139 98.076C152.952 97.74 152.859 97.376 152.859 96.984C152.859 96.508 152.98 96.1067 153.223 95.78C153.475 95.444 153.825 95.192 154.273 95.024C154.73 94.8467 155.267 94.758 155.883 94.758H157.745C157.745 94.3193 157.675 93.9553 157.535 93.666C157.404 93.3673 157.208 93.1433 156.947 92.994C156.695 92.8447 156.377 92.77 155.995 92.77C155.547 92.77 155.159 92.882 154.833 93.106C154.506 93.33 154.305 93.6613 154.231 94.1H153.027C153.083 93.596 153.251 93.176 153.531 92.84C153.82 92.4947 154.184 92.2333 154.623 92.056C155.061 91.8693 155.519 91.776 155.995 91.776C156.648 91.776 157.189 91.8973 157.619 92.14C158.057 92.3733 158.384 92.7047 158.599 93.134C158.813 93.554 158.921 94.0533 158.921 94.632V99H157.871L157.801 97.754C157.707 97.95 157.586 98.1367 157.437 98.314C157.297 98.482 157.129 98.6313 156.933 98.762C156.737 98.8833 156.513 98.9813 156.261 99.056C156.018 99.1307 155.738 99.168 155.421 99.168ZM155.603 98.174C155.929 98.174 156.223 98.1087 156.485 97.978C156.755 97.838 156.984 97.6513 157.171 97.418C157.357 97.1753 157.497 96.9093 157.591 96.62C157.693 96.3307 157.745 96.0273 157.745 95.71V95.668H155.981C155.523 95.668 155.155 95.724 154.875 95.836C154.595 95.9387 154.394 96.088 154.273 96.284C154.151 96.4707 154.091 96.6853 154.091 96.928C154.091 97.18 154.147 97.3993 154.259 97.586C154.38 97.7727 154.553 97.9173 154.777 98.02C155.01 98.1227 155.285 98.174 155.603 98.174ZM160.852 99V91.944H162.028V99H160.852ZM161.44 90.446C161.206 90.446 161.01 90.3713 160.852 90.222C160.702 90.0633 160.628 89.8673 160.628 89.634C160.628 89.4007 160.702 89.214 160.852 89.074C161.01 88.9247 161.206 88.85 161.44 88.85C161.664 88.85 161.855 88.9247 162.014 89.074C162.172 89.214 162.252 89.4007 162.252 89.634C162.252 89.8673 162.172 90.0633 162.014 90.222C161.855 90.3713 161.664 90.446 161.44 90.446ZM164.103 99V88.92H165.279V99H164.103ZM169.88 99.168C169.292 99.168 168.779 99.07 168.34 98.874C167.911 98.678 167.566 98.4073 167.304 98.062C167.052 97.7073 166.898 97.292 166.842 96.816H168.046C168.093 97.0587 168.191 97.2827 168.34 97.488C168.49 97.6933 168.69 97.8613 168.942 97.992C169.204 98.1133 169.521 98.174 169.894 98.174C170.221 98.174 170.492 98.1273 170.706 98.034C170.921 97.9313 171.08 97.796 171.182 97.628C171.294 97.46 171.35 97.278 171.35 97.082C171.35 96.7927 171.28 96.5733 171.14 96.424C171.01 96.2747 170.814 96.158 170.552 96.074C170.291 95.9807 169.974 95.9013 169.6 95.836C169.292 95.78 168.989 95.7053 168.69 95.612C168.392 95.5187 168.126 95.3973 167.892 95.248C167.659 95.0893 167.472 94.898 167.332 94.674C167.202 94.45 167.136 94.1747 167.136 93.848C167.136 93.4467 167.239 93.092 167.444 92.784C167.65 92.4667 167.944 92.2193 168.326 92.042C168.718 91.8647 169.171 91.776 169.684 91.776C170.44 91.776 171.052 91.958 171.518 92.322C171.985 92.686 172.26 93.2133 172.344 93.904H171.182C171.136 93.5493 170.982 93.274 170.72 93.078C170.468 92.8727 170.118 92.77 169.67 92.77C169.232 92.77 168.896 92.8587 168.662 93.036C168.438 93.2133 168.326 93.4467 168.326 93.736C168.326 93.9227 168.387 94.0907 168.508 94.24C168.639 94.38 168.826 94.5013 169.068 94.604C169.32 94.7067 169.628 94.7907 169.992 94.856C170.459 94.94 170.884 95.052 171.266 95.192C171.649 95.332 171.957 95.542 172.19 95.822C172.433 96.0927 172.554 96.48 172.554 96.984C172.554 97.4227 172.442 97.8053 172.218 98.132C172.004 98.4587 171.696 98.7153 171.294 98.902C170.893 99.0793 170.422 99.168 169.88 99.168ZM181.662 99.168C181.261 99.168 180.897 99.112 180.57 99C180.253 98.8787 179.973 98.72 179.73 98.524C179.488 98.328 179.287 98.0993 179.128 97.838L179.03 99H177.966V88.92H179.142V93.106C179.366 92.742 179.688 92.4293 180.108 92.168C180.528 91.9067 181.046 91.776 181.662 91.776C182.344 91.776 182.941 91.9393 183.454 92.266C183.968 92.5833 184.364 93.022 184.644 93.582C184.934 94.1327 185.078 94.7627 185.078 95.472C185.078 96.1813 184.934 96.816 184.644 97.376C184.364 97.936 183.968 98.3747 183.454 98.692C182.941 99.0093 182.344 99.168 181.662 99.168ZM181.522 98.146C181.98 98.146 182.386 98.034 182.74 97.81C183.095 97.586 183.37 97.278 183.566 96.886C183.772 96.4847 183.874 96.0133 183.874 95.472C183.874 94.94 183.772 94.4733 183.566 94.072C183.37 93.6707 183.095 93.358 182.74 93.134C182.386 92.91 181.98 92.798 181.522 92.798C181.056 92.798 180.645 92.91 180.29 93.134C179.936 93.358 179.66 93.6707 179.464 94.072C179.268 94.4733 179.17 94.94 179.17 95.472C179.17 96.0133 179.268 96.4847 179.464 96.886C179.66 97.278 179.936 97.586 180.29 97.81C180.645 98.034 181.056 98.146 181.522 98.146ZM186.939 102.08L188.661 98.216H188.255L185.483 91.944H186.757L189.053 97.334L191.461 91.944H192.679L188.171 102.08H186.939ZM198.438 102.08L200.16 98.216H199.754L196.982 91.944H198.256L200.552 97.334L202.96 91.944H204.178L199.67 102.08H198.438ZM207.941 99.168C207.287 99.168 206.699 99.0187 206.177 98.72C205.654 98.412 205.243 97.9827 204.945 97.432C204.646 96.872 204.497 96.2233 204.497 95.486C204.497 94.73 204.646 94.0767 204.945 93.526C205.253 92.966 205.668 92.5367 206.191 92.238C206.723 91.93 207.315 91.776 207.969 91.776C208.641 91.776 209.233 91.93 209.747 92.238C210.269 92.5367 210.68 92.966 210.979 93.526C211.287 94.0767 211.441 94.7253 211.441 95.472C211.441 96.2187 211.287 96.872 210.979 97.432C210.671 97.9827 210.255 98.412 209.733 98.72C209.21 99.0187 208.613 99.168 207.941 99.168ZM207.955 98.16C208.356 98.16 208.729 98.062 209.075 97.866C209.42 97.6607 209.7 97.3573 209.915 96.956C210.129 96.5547 210.237 96.06 210.237 95.472C210.237 94.8747 210.129 94.38 209.915 93.988C209.709 93.5867 209.434 93.288 209.089 93.092C208.753 92.8867 208.379 92.784 207.969 92.784C207.577 92.784 207.203 92.8867 206.849 93.092C206.503 93.288 206.223 93.5867 206.009 93.988C205.803 94.38 205.701 94.8747 205.701 95.472C205.701 96.06 205.803 96.5547 206.009 96.956C206.223 97.3573 206.499 97.6607 206.835 97.866C207.18 98.062 207.553 98.16 207.955 98.16ZM215.651 99.168C215.11 99.168 214.634 99.0607 214.223 98.846C213.822 98.6313 213.509 98.3 213.285 97.852C213.071 97.404 212.963 96.844 212.963 96.172V91.944H214.139V96.046C214.139 96.746 214.293 97.2733 214.601 97.628C214.909 97.9827 215.343 98.16 215.903 98.16C216.295 98.16 216.65 98.0667 216.967 97.88C217.285 97.684 217.532 97.4087 217.709 97.054C217.896 96.69 217.989 96.2467 217.989 95.724V91.944H219.165V99H218.101L218.031 97.768C217.817 98.2067 217.499 98.552 217.079 98.804C216.659 99.0467 216.183 99.168 215.651 99.168ZM221.115 99V91.944H222.179L222.263 93.288C222.421 92.9707 222.622 92.7 222.865 92.476C223.117 92.252 223.415 92.0793 223.761 91.958C224.115 91.8367 224.517 91.776 224.965 91.776V93.008H224.531C224.232 93.008 223.947 93.05 223.677 93.134C223.406 93.2087 223.163 93.3347 222.949 93.512C222.743 93.6893 222.58 93.932 222.459 94.24C222.347 94.5387 222.291 94.912 222.291 95.36V99H221.115ZM233.193 99.168C232.53 99.168 231.933 99.014 231.401 98.706C230.878 98.398 230.468 97.9687 230.169 97.418C229.87 96.858 229.721 96.214 229.721 95.486C229.721 94.7393 229.87 94.0907 230.169 93.54C230.468 92.9893 230.878 92.56 231.401 92.252C231.933 91.9347 232.53 91.776 233.193 91.776C234.033 91.776 234.733 91.9953 235.293 92.434C235.853 92.8633 236.208 93.442 236.357 94.17H235.153C235.06 93.7313 234.831 93.3907 234.467 93.148C234.103 92.9053 233.674 92.784 233.179 92.784C232.778 92.784 232.404 92.8867 232.059 93.092C231.714 93.288 231.438 93.5867 231.233 93.988C231.028 94.3893 230.925 94.884 230.925 95.472C230.925 95.9107 230.986 96.3027 231.107 96.648C231.228 96.984 231.392 97.264 231.597 97.488C231.802 97.712 232.04 97.8847 232.311 98.006C232.591 98.118 232.88 98.174 233.179 98.174C233.515 98.174 233.818 98.1227 234.089 98.02C234.36 97.908 234.588 97.7447 234.775 97.53C234.962 97.3153 235.088 97.0633 235.153 96.774H236.357C236.208 97.4833 235.848 98.062 235.279 98.51C234.719 98.9487 234.024 99.168 233.193 99.168ZM238.027 99V88.92H239.203V93.134C239.436 92.714 239.763 92.3827 240.183 92.14C240.612 91.8973 241.079 91.776 241.583 91.776C242.124 91.776 242.596 91.888 242.997 92.112C243.398 92.3267 243.706 92.658 243.921 93.106C244.136 93.554 244.243 94.1187 244.243 94.8V99H243.081V94.926C243.081 94.2167 242.932 93.6847 242.633 93.33C242.334 92.966 241.9 92.784 241.331 92.784C240.93 92.784 240.566 92.882 240.239 93.078C239.922 93.274 239.67 93.554 239.483 93.918C239.296 94.282 239.203 94.73 239.203 95.262V99H238.027ZM249.23 99.168C248.576 99.168 247.988 99.0187 247.466 98.72C246.943 98.412 246.532 97.9827 246.234 97.432C245.935 96.872 245.786 96.2233 245.786 95.486C245.786 94.73 245.935 94.0767 246.234 93.526C246.542 92.966 246.957 92.5367 247.48 92.238C248.012 91.93 248.604 91.776 249.258 91.776C249.93 91.776 250.522 91.93 251.036 92.238C251.558 92.5367 251.969 92.966 252.268 93.526C252.576 94.0767 252.73 94.7253 252.73 95.472C252.73 96.2187 252.576 96.872 252.268 97.432C251.96 97.9827 251.544 98.412 251.022 98.72C250.499 99.0187 249.902 99.168 249.23 99.168ZM249.244 98.16C249.645 98.16 250.018 98.062 250.364 97.866C250.709 97.6607 250.989 97.3573 251.204 96.956C251.418 96.5547 251.526 96.06 251.526 95.472C251.526 94.8747 251.418 94.38 251.204 93.988C250.998 93.5867 250.723 93.288 250.378 93.092C250.042 92.8867 249.668 92.784 249.258 92.784C248.866 92.784 248.492 92.8867 248.138 93.092C247.792 93.288 247.512 93.5867 247.298 93.988C247.092 94.38 246.99 94.8747 246.99 95.472C246.99 96.06 247.092 96.5547 247.298 96.956C247.512 97.3573 247.788 97.6607 248.124 97.866C248.469 98.062 248.842 98.16 249.244 98.16ZM257.038 99.168C256.45 99.168 255.937 99.07 255.498 98.874C255.069 98.678 254.724 98.4073 254.462 98.062C254.21 97.7073 254.056 97.292 254 96.816H255.204C255.251 97.0587 255.349 97.2827 255.498 97.488C255.648 97.6933 255.848 97.8613 256.1 97.992C256.362 98.1133 256.679 98.174 257.052 98.174C257.379 98.174 257.65 98.1273 257.864 98.034C258.079 97.9313 258.238 97.796 258.34 97.628C258.452 97.46 258.508 97.278 258.508 97.082C258.508 96.7927 258.438 96.5733 258.298 96.424C258.168 96.2747 257.972 96.158 257.71 96.074C257.449 95.9807 257.132 95.9013 256.758 95.836C256.45 95.78 256.147 95.7053 255.848 95.612C255.55 95.5187 255.284 95.3973 255.05 95.248C254.817 95.0893 254.63 94.898 254.49 94.674C254.36 94.45 254.294 94.1747 254.294 93.848C254.294 93.4467 254.397 93.092 254.602 92.784C254.808 92.4667 255.102 92.2193 255.484 92.042C255.876 91.8647 256.329 91.776 256.842 91.776C257.598 91.776 258.21 91.958 258.676 92.322C259.143 92.686 259.418 93.2133 259.502 93.904H258.34C258.294 93.5493 258.14 93.274 257.878 93.078C257.626 92.8727 257.276 92.77 256.828 92.77C256.39 92.77 256.054 92.8587 255.82 93.036C255.596 93.2133 255.484 93.4467 255.484 93.736C255.484 93.9227 255.545 94.0907 255.666 94.24C255.797 94.38 255.984 94.5013 256.226 94.604C256.478 94.7067 256.786 94.7907 257.15 94.856C257.617 94.94 258.042 95.052 258.424 95.192C258.807 95.332 259.115 95.542 259.348 95.822C259.591 96.0927 259.712 96.48 259.712 96.984C259.712 97.4227 259.6 97.8053 259.376 98.132C259.162 98.4587 258.854 98.7153 258.452 98.902C258.051 99.0793 257.58 99.168 257.038 99.168ZM264.5 99.168C263.837 99.168 263.249 99.014 262.736 98.706C262.232 98.398 261.835 97.9687 261.546 97.418C261.256 96.858 261.112 96.2093 261.112 95.472C261.112 94.7253 261.252 94.0767 261.532 93.526C261.821 92.9753 262.222 92.546 262.736 92.238C263.258 91.93 263.856 91.776 264.528 91.776C265.218 91.776 265.802 91.93 266.278 92.238C266.763 92.546 267.132 92.952 267.384 93.456C267.645 93.9507 267.776 94.4967 267.776 95.094C267.776 95.1873 267.776 95.2853 267.776 95.388C267.776 95.4907 267.771 95.6073 267.762 95.738H261.994V94.828H266.628C266.6 94.184 266.385 93.68 265.984 93.316C265.592 92.952 265.097 92.77 264.5 92.77C264.098 92.77 263.725 92.8633 263.38 93.05C263.044 93.2273 262.773 93.4933 262.568 93.848C262.362 94.1933 262.26 94.6273 262.26 95.15V95.542C262.26 96.1207 262.362 96.606 262.568 96.998C262.782 97.39 263.058 97.684 263.394 97.88C263.739 98.076 264.108 98.174 264.5 98.174C264.994 98.174 265.4 98.0667 265.718 97.852C266.044 97.628 266.278 97.3293 266.418 96.956H267.58C267.468 97.376 267.272 97.754 266.992 98.09C266.712 98.426 266.362 98.692 265.942 98.888C265.531 99.0747 265.05 99.168 264.5 99.168ZM269.363 99V91.944H270.427L270.483 93.176C270.707 92.7373 271.024 92.3967 271.435 92.154C271.855 91.902 272.331 91.776 272.863 91.776C273.413 91.776 273.889 91.888 274.291 92.112C274.692 92.3267 275.005 92.658 275.229 93.106C275.453 93.5447 275.565 94.1047 275.565 94.786V99H274.389V94.912C274.389 94.2027 274.23 93.6707 273.913 93.316C273.605 92.9613 273.166 92.784 272.597 92.784C272.205 92.784 271.855 92.882 271.547 93.078C271.239 93.2647 270.991 93.54 270.805 93.904C270.627 94.2587 270.539 94.702 270.539 95.234V99H269.363ZM281.121 99V91.944H282.185L282.255 92.952C282.479 92.588 282.777 92.3033 283.151 92.098C283.533 91.8833 283.949 91.776 284.397 91.776C284.761 91.776 285.087 91.8273 285.377 91.93C285.675 92.0233 285.937 92.1727 286.161 92.378C286.385 92.574 286.567 92.826 286.707 93.134C286.949 92.7047 287.281 92.3733 287.701 92.14C288.13 91.8973 288.587 91.776 289.073 91.776C289.614 91.776 290.085 91.888 290.487 92.112C290.897 92.3267 291.21 92.658 291.425 93.106C291.649 93.5447 291.761 94.1047 291.761 94.786V99H290.599V94.912C290.599 94.2027 290.454 93.6707 290.165 93.316C289.875 92.9613 289.469 92.784 288.947 92.784C288.583 92.784 288.256 92.882 287.967 93.078C287.677 93.2647 287.449 93.54 287.281 93.904C287.113 94.268 287.029 94.716 287.029 95.248V99H285.853V94.912C285.853 94.2027 285.708 93.6707 285.419 93.316C285.129 92.9613 284.719 92.784 284.187 92.784C283.832 92.784 283.51 92.882 283.221 93.078C282.941 93.2647 282.717 93.54 282.549 93.904C282.381 94.268 282.297 94.716 282.297 95.248V99H281.121ZM296.683 99.168C296.021 99.168 295.433 99.014 294.919 98.706C294.415 98.398 294.019 97.9687 293.729 97.418C293.44 96.858 293.295 96.2093 293.295 95.472C293.295 94.7253 293.435 94.0767 293.715 93.526C294.005 92.9753 294.406 92.546 294.919 92.238C295.442 91.93 296.039 91.776 296.711 91.776C297.402 91.776 297.985 91.93 298.461 92.238C298.947 92.546 299.315 92.952 299.567 93.456C299.829 93.9507 299.959 94.4967 299.959 95.094C299.959 95.1873 299.959 95.2853 299.959 95.388C299.959 95.4907 299.955 95.6073 299.945 95.738H294.177V94.828H298.811C298.783 94.184 298.569 93.68 298.167 93.316C297.775 92.952 297.281 92.77 296.683 92.77C296.282 92.77 295.909 92.8633 295.563 93.05C295.227 93.2273 294.957 93.4933 294.751 93.848C294.546 94.1933 294.443 94.6273 294.443 95.15V95.542C294.443 96.1207 294.546 96.606 294.751 96.998C294.966 97.39 295.241 97.684 295.577 97.88C295.923 98.076 296.291 98.174 296.683 98.174C297.178 98.174 297.584 98.0667 297.901 97.852C298.228 97.628 298.461 97.3293 298.601 96.956H299.763C299.651 97.376 299.455 97.754 299.175 98.09C298.895 98.426 298.545 98.692 298.125 98.888C297.715 99.0747 297.234 99.168 296.683 99.168ZM304.086 99C303.666 99 303.302 98.9347 302.994 98.804C302.686 98.6733 302.448 98.454 302.28 98.146C302.121 97.8287 302.042 97.404 302.042 96.872V92.938H300.81V91.944H302.042L302.196 90.236H303.218V91.944H305.262V92.938H303.218V96.872C303.218 97.3107 303.307 97.6093 303.484 97.768C303.661 97.9173 303.974 97.992 304.422 97.992H305.178V99H304.086ZM306.796 99V88.92H307.972V93.134C308.206 92.714 308.532 92.3827 308.952 92.14C309.382 91.8973 309.848 91.776 310.352 91.776C310.894 91.776 311.365 91.888 311.766 92.112C312.168 92.3267 312.476 92.658 312.69 93.106C312.905 93.554 313.012 94.1187 313.012 94.8V99H311.85V94.926C311.85 94.2167 311.701 93.6847 311.402 93.33C311.104 92.966 310.67 92.784 310.1 92.784C309.699 92.784 309.335 92.882 309.008 93.078C308.691 93.274 308.439 93.554 308.252 93.918C308.066 94.282 307.972 94.73 307.972 95.262V99H306.796ZM317.999 99.168C317.346 99.168 316.758 99.0187 316.235 98.72C315.712 98.412 315.302 97.9827 315.003 97.432C314.704 96.872 314.555 96.2233 314.555 95.486C314.555 94.73 314.704 94.0767 315.003 93.526C315.311 92.966 315.726 92.5367 316.249 92.238C316.781 91.93 317.374 91.776 318.027 91.776C318.699 91.776 319.292 91.93 319.805 92.238C320.328 92.5367 320.738 92.966 321.037 93.526C321.345 94.0767 321.499 94.7253 321.499 95.472C321.499 96.2187 321.345 96.872 321.037 97.432C320.729 97.9827 320.314 98.412 319.791 98.72C319.268 99.0187 318.671 99.168 317.999 99.168ZM318.013 98.16C318.414 98.16 318.788 98.062 319.133 97.866C319.478 97.6607 319.758 97.3573 319.973 96.956C320.188 96.5547 320.295 96.06 320.295 95.472C320.295 94.8747 320.188 94.38 319.973 93.988C319.768 93.5867 319.492 93.288 319.147 93.092C318.811 92.8867 318.438 92.784 318.027 92.784C317.635 92.784 317.262 92.8867 316.907 93.092C316.562 93.288 316.282 93.5867 316.067 93.988C315.862 94.38 315.759 94.8747 315.759 95.472C315.759 96.06 315.862 96.5547 316.067 96.956C316.282 97.3573 316.557 97.6607 316.893 97.866C317.238 98.062 317.612 98.16 318.013 98.16ZM326.256 99.168C325.575 99.168 324.977 99.0093 324.464 98.692C323.951 98.3653 323.554 97.922 323.274 97.362C322.994 96.802 322.854 96.1673 322.854 95.458C322.854 94.7487 322.994 94.1187 323.274 93.568C323.554 93.008 323.951 92.5693 324.464 92.252C324.987 91.9347 325.589 91.776 326.27 91.776C326.849 91.776 327.353 91.8927 327.782 92.126C328.221 92.3593 328.557 92.686 328.79 93.106V88.92H329.966V99H328.902L328.804 97.838C328.655 98.0713 328.463 98.2907 328.23 98.496C327.997 98.692 327.717 98.8553 327.39 98.986C327.063 99.1073 326.685 99.168 326.256 99.168ZM326.396 98.146C326.863 98.146 327.273 98.034 327.628 97.81C327.983 97.586 328.258 97.278 328.454 96.886C328.65 96.4847 328.748 96.0133 328.748 95.472C328.748 94.94 328.65 94.4733 328.454 94.072C328.258 93.6707 327.983 93.358 327.628 93.134C327.273 92.91 326.863 92.798 326.396 92.798C325.939 92.798 325.533 92.91 325.178 93.134C324.823 93.358 324.548 93.6707 324.352 94.072C324.156 94.4733 324.058 94.94 324.058 95.472C324.058 96.0133 324.156 96.4847 324.352 96.886C324.548 97.278 324.823 97.586 325.178 97.81C325.533 98.034 325.939 98.146 326.396 98.146Z" fill="#2E529E"/>
</g>
<defs>
<filter id="filter0_b_28_4929" x="-0.1" y="-0.1" width="360.2" height="534.2" filterUnits="userSpaceOnUse" color-interpolation-filters="sRGB">
<feFlood flood-opacity="0" result="BackgroundImageFix"/>
<feGaussianBlur in="BackgroundImageFix" stdDeviation="0.05"/>
<feComposite in2="SourceAlpha" operator="in" result="effect1_backgroundBlur_28_4929"/>
<feBlend mode="normal" in="SourceGraphic" in2="effect1_backgroundBlur_28_4929" result="shape"/>
</filter>
</defs>
</svg>
